<mxfile host="app.diagrams.net" modified="2024-06-29T17:33:54.586Z" agent="Mozilla/5.0 (Windows NT 10.0; Win64; x64) AppleWebKit/537.36 (KHTML, like Gecko) Chrome/126.0.0.0 Safari/537.36" etag="UIX0fhL07imnTY0_p01f" version="24.6.4" type="github">
  <diagram name="PÃ¡gina-1" id="SZpNjL1lRCDp8P0qQKdY">
    <mxGraphModel dx="880" dy="589" grid="0" gridSize="10" guides="1" tooltips="1" connect="1" arrows="1" fold="1" page="0" pageScale="1" pageWidth="827" pageHeight="1169" math="1" shadow="1">
      <root>
        <mxCell id="0" />
        <mxCell id="1" parent="0" />
        <mxCell id="eNBNdzw3ngynQW_ZDpR5-1" value="" style="rounded=0;whiteSpace=wrap;html=1;" vertex="1" parent="1">
          <mxGeometry x="138" y="189" width="120" height="60" as="geometry" />
        </mxCell>
        <mxCell id="eNBNdzw3ngynQW_ZDpR5-2" value="" style="rounded=1;whiteSpace=wrap;html=1;fillColor=default;strokeColor=#b85450;gradientColor=default;" vertex="1" parent="1">
          <mxGeometry x="369" y="347" width="163" height="79" as="geometry" />
        </mxCell>
        <mxCell id="eNBNdzw3ngynQW_ZDpR5-3" value="" style="rounded=1;whiteSpace=wrap;html=1;" vertex="1" parent="1">
          <mxGeometry x="377" y="11" width="120" height="60" as="geometry" />
        </mxCell>
        <mxCell id="eNBNdzw3ngynQW_ZDpR5-4" value="Text" style="text;html=1;align=center;verticalAlign=middle;whiteSpace=wrap;rounded=0;fontSize=16;" vertex="1" parent="1">
          <mxGeometry x="168" y="204" width="60" height="30" as="geometry" />
        </mxCell>
        <mxCell id="eNBNdzw3ngynQW_ZDpR5-5" value="Text" style="text;html=1;align=center;verticalAlign=middle;whiteSpace=wrap;rounded=0;fontSize=16;" vertex="1" parent="1">
          <mxGeometry x="168" y="204" width="60" height="30" as="geometry" />
        </mxCell>
        <mxCell id="eNBNdzw3ngynQW_ZDpR5-6" value="" style="ellipse;whiteSpace=wrap;html=1;" vertex="1" parent="1">
          <mxGeometry x="193" y="68" width="120" height="80" as="geometry" />
        </mxCell>
        <mxCell id="eNBNdzw3ngynQW_ZDpR5-8" style="edgeStyle=none;curved=1;rounded=0;orthogonalLoop=1;jettySize=auto;html=1;exitX=0.75;exitY=1;exitDx=0;exitDy=0;entryX=0.717;entryY=-0.3;entryDx=0;entryDy=0;entryPerimeter=0;fontSize=12;startSize=8;endSize=8;" edge="1" parent="1" source="eNBNdzw3ngynQW_ZDpR5-5" target="eNBNdzw3ngynQW_ZDpR5-5">
          <mxGeometry relative="1" as="geometry" />
        </mxCell>
        <mxCell id="eNBNdzw3ngynQW_ZDpR5-9" value="" style="rounded=0;whiteSpace=wrap;html=1;" vertex="1" parent="1">
          <mxGeometry x="118" y="179" width="160" height="80" as="geometry" />
        </mxCell>
        <mxCell id="eNBNdzw3ngynQW_ZDpR5-10" value="" style="rounded=0;whiteSpace=wrap;html=1;" vertex="1" parent="1">
          <mxGeometry x="118" y="179" width="160" height="80" as="geometry" />
        </mxCell>
        <mxCell id="eNBNdzw3ngynQW_ZDpR5-11" value="" style="rounded=0;whiteSpace=wrap;html=1;" vertex="1" parent="1">
          <mxGeometry x="118" y="179" width="160" height="80" as="geometry" />
        </mxCell>
      </root>
    </mxGraphModel>
  </diagram>
</mxfile>
